<?xml version="1.0" encoding="UTF-8"?>
<svg xmlns="http://www.w3.org/2000/svg" xmlns:xlink="http://www.w3.org/1999/xlink" width="150px" height="150px" viewBox="0 0 150 150" version="1.1">
<g id="surface1">
<path style=" stroke:none;fill-rule:nonzero;fill:rgb(0%,0%,0%);fill-opacity:1;" d="M 71.425781 0.0703125 C 71.109375 0.09375 70.078125 0.164062 69.140625 0.234375 C 54.363281 1.324219 39.796875 7.078125 28.125 16.453125 C 22.804688 20.730469 17.871094 25.945312 13.886719 31.535156 C -1.230469 52.722656 -4.21875 80.390625 6 104.4375 C 6.878906 106.5 8.71875 110.191406 9.84375 112.148438 C 18.691406 127.546875 32.425781 139.195312 49.019531 145.359375 C 59.835938 149.378906 71.71875 150.820312 83.320312 149.53125 C 98.578125 147.820312 112.710938 141.597656 124.394531 131.4375 C 126.128906 129.925781 129.796875 126.257812 131.332031 124.5 C 141.597656 112.722656 147.808594 98.695312 149.519531 83.378906 C 152.074219 60.632812 144.210938 38.179688 128.015625 21.972656 C 118.417969 12.375 106.441406 5.566406 93.398438 2.285156 C 89.414062 1.277344 85.980469 0.703125 81.621094 0.28125 C 79.863281 0.117188 72.761719 -0.0351562 71.425781 0.0703125 Z M 75.996094 72.878906 C 77.742188 73.664062 77.777344 76.207031 76.054688 77.074219 C 74.601562 77.8125 72.84375 76.863281 72.679688 75.257812 C 72.550781 73.816406 73.582031 72.65625 75 72.65625 C 75.292969 72.65625 75.738281 72.761719 75.996094 72.878906 Z M 75.996094 72.878906 "/>
</g>
</svg>
